<?xml version="1.0" encoding="UTF-8" standalone="no"?>
<!-- Created with Inkscape (http://www.inkscape.org/) -->

<svg
   width="334.04053"
   height="391.8053"
   viewBox="0 0 334.04053 391.8053"
   version="1.1"
   id="svg5"
   xml:space="preserve"
   xmlns:inkscape="http://www.inkscape.org/namespaces/inkscape"
   xmlns:sodipodi="http://sodipodi.sourceforge.net/DTD/sodipodi-0.dtd"
   xmlns="http://www.w3.org/2000/svg"
   xmlns:svg="http://www.w3.org/2000/svg"><sodipodi:namedview
     id="namedview7"
     pagecolor="#ffffff"
     bordercolor="#000000"
     borderopacity="0.25"
     inkscape:showpageshadow="2"
     inkscape:pageopacity="0.0"
     inkscape:pagecheckerboard="0"
     inkscape:deskcolor="#d1d1d1"
     inkscape:document-units="px"
     showgrid="false" /><defs
     id="defs2" /><g
     inkscape:label="Layer 1"
     inkscape:groupmode="layer"
     id="layer1"
     transform="translate(-515.97974,-188.09737)"><path
       style="fill:#000000"
       d="m 679.49523,578.04586 c -1.08472,-1.02123 -10.29722,-8.13634 -20.47222,-15.81135 -10.175,-7.67502 -25.475,-19.29103 -34,-25.81336 -8.525,-6.52234 -22.025,-16.8141 -30,-22.87059 -7.975,-6.05649 -17.2,-13.08958 -20.5,-15.6291 -3.3,-2.53951 -12.3,-9.40703 -20,-15.26113 -7.7,-5.85411 -15.43224,-11.90695 -17.18276,-13.45077 l -3.18276,-2.80693 -2.02684,-19.5 c -7.18843,-69.15904 -11.55784,-110.8656 -14.03857,-134 -2.1196,-19.76659 -2.55292,-26.78266 -1.70536,-27.61245 0.62496,-0.61185 8.11129,-3.62359 16.63629,-6.69277 8.525,-3.06917 36.1122,-13.04236 61.30489,-22.16264 25.19268,-9.12028 46.17917,-16.35101 46.63663,-16.06828 0.45747,0.28273 1.14333,2.20652 1.52414,4.27509 0.38082,2.06858 1.55683,5.73075 2.61337,8.13817 1.05653,2.40741 1.92097,5.00605 1.92097,5.77475 0,1.68113 5.53909,-0.49257 -57,22.36845 l -51.5,18.82571 0.15694,5.32699 c 0.0863,2.92984 2.21474,23.32698 4.72984,45.32698 8.01451,70.10421 11.59582,101.96545 11.60464,103.24109 0.005,0.6826 16.99608,13.93122 37.75858,29.44138 20.7625,15.51016 49.37186,36.88917 63.57637,47.50891 14.2045,10.61974 26.02863,19.30862 26.27584,19.30862 0.4044,0 45.27419,-33.37493 104.86445,-78 l 22.03334,-16.5 0.72378,-6.5 c 1.71939,-15.4412 12.797,-134.04951 13.02503,-139.45938 l 0.25119,-5.95939 -32,-11.58564 c -17.6,-6.3721 -41.7875,-15.11849 -53.75,-19.43641 -12.25147,-4.42223 -21.75,-8.38666 -21.75,-9.07786 0,-0.67489 0.93659,-3.3444 2.08131,-5.93222 1.14472,-2.58783 2.25478,-7.43009 2.4668,-10.76059 0.21203,-3.3305 0.57315,-6.2431 0.80249,-6.47245 0.42424,-0.42423 8.22134,2.27012 81.6494,28.21453 46.75493,16.51997 47.00104,16.60804 46.99723,16.81724 -0.004,0.20989 -4.77115,46.12452 -11.95628,115.15217 -3.32049,31.9 -6.29665,60.07454 -6.6137,62.61008 -0.49712,3.97573 -1.15097,5.02424 -4.75184,7.61998 -2.29648,1.65545 -7.32541,5.45042 -11.17541,8.43327 -3.85,2.98285 -15.55,11.9007 -26,19.81745 -10.45,7.91675 -22.6,17.15 -27,20.51835 -14.264,10.91957 -46.77454,35.75604 -55.58507,42.46428 -4.72179,3.59513 -11.98134,9.12409 -16.13233,12.28659 -4.151,3.1625 -7.95021,5.75 -8.44271,5.75 -0.49249,0 -1.78295,-0.83555 -2.86767,-1.85677 z m 13.02778,-8.64903 c 4.4,-3.37665 14.525,-11.08051 22.5,-17.11967 7.975,-6.03917 23.275,-17.6874 34,-25.88496 29.27494,-22.37606 48.88585,-37.31996 65.03258,-49.55613 l 14.53258,-11.01295 2.74884,-26.21024 c 1.51185,-14.41564 5.19645,-49.83525 8.18799,-78.71025 2.99154,-28.875 5.97047,-57.13443 6.61986,-62.79873 0.69805,-6.08887 0.81227,-10.61848 0.27942,-11.08094 -0.4957,-0.43022 -10.12627,-4.02086 -21.40127,-7.9792 -11.275,-3.95835 -38.725,-13.64102 -61,-21.51706 l -40.5,-14.32006 -0.65426,6.21251 c -0.35984,3.41688 -1.39073,7.63669 -2.29086,9.37736 -1.598,3.09019 -1.39558,5.10612 0.51272,5.10612 0.52226,0 16.5832,5.64577 35.69098,12.54615 19.10778,6.90038 42.39142,15.2926 51.74142,18.64937 9.35,3.35677 17.31271,6.3735 17.69492,6.70385 0.38221,0.33035 0.0492,7.35063 -0.7399,15.60063 -0.78916,8.25 -2.56571,26.7 -3.94789,41 -1.38218,14.3 -3.85135,40.175 -5.48704,57.5 -1.6357,17.325 -3.25287,33.64677 -3.59371,36.2706 l -0.61972,4.77061 -10.85296,8.22939 c -9.42163,7.14408 -34.48931,25.93111 -52.71282,39.50576 -3.15749,2.352 -6.86597,5.052 -8.24108,6 -1.37511,0.948 -14.39221,10.65581 -28.92689,21.5729 -14.53468,10.9171 -27.01953,20.07676 -27.74412,20.35481 -0.72459,0.27806 -9.98249,-5.99014 -20.57311,-13.92932 -16.79789,-12.59241 -35.26623,-26.3697 -95.99591,-71.61243 -8.90447,-6.63371 -13.89499,-11.01513 -14.17996,-12.4493 -0.24186,-1.21716 -2.97863,-25.16302 -6.08173,-53.21302 -3.10309,-28.05 -6.96226,-62.45627 -8.57594,-76.45837 -2.35074,-20.39761 -2.68431,-25.69775 -1.67805,-26.66258 0.69075,-0.66232 5.08091,-2.5543 9.75591,-4.20441 4.675,-1.6501 14.8,-5.31159 22.5,-8.13662 7.7,-2.82504 27.725,-10.15291 44.5,-16.28415 16.775,-6.13124 30.65645,-11.25305 30.84767,-11.38179 0.19121,-0.12874 -0.59629,-2.75701 -1.75,-5.84059 -1.15372,-3.08358 -2.09767,-6.45822 -2.09767,-7.4992 0,-1.59634 -0.43057,-1.76463 -2.75,-1.07484 -2.30959,0.68686 -61.97292,22.2239 -92.75,33.48054 -4.95,1.81045 -12.38618,4.50086 -16.52484,5.9787 -4.13867,1.47783 -8.08818,3.03513 -8.77669,3.46065 -0.99241,0.61334 -0.83135,4.59211 0.77715,19.19817 2.47298,22.45616 8.86891,84.25395 13.13639,126.92449 l 3.15032,31.5 3.44055,3.16797 c 1.89231,1.74239 16.93798,13.44239 33.43482,26 16.49685,12.55762 36.19652,27.55703 43.77705,33.33203 7.58054,5.775 20.26334,15.40715 28.18402,21.40478 19.56649,14.81598 30.84724,23.47153 34.2359,26.26871 3.23938,2.67395 2.60883,2.92201 13.16533,-5.17929 z M 660.37297,522.5016 c -29.19685,-23.80775 -57.37049,-63.46367 -70.76034,-99.59897 -7.65743,-20.6652 -10.59484,-36.61829 -10.58251,-57.47377 0.009,-15.9616 0.94834,-25.52623 2.50577,-25.52623 0.67301,0 5.4178,6.1875 10.54398,13.75 5.12617,7.5625 13.72095,19.55451 19.09951,26.64892 11.14857,14.70514 15.98422,23.92564 22.45335,42.81346 2.50308,7.30819 7.49548,20.71262 11.09423,29.78762 11.7499,29.62986 26.29605,70.60623 26.29605,74.07573 0,3.23495 -2.46175,2.20016 -10.65004,-4.47676 z m 2.70718,-14.84789 c -6.33123,-18.69572 -8.89724,-25.52505 -18.31746,-48.75108 -3.23458,-7.975 -8.52296,-22.03406 -11.75196,-31.24236 -7.55481,-21.54438 -11.7409,-29.96191 -21.01502,-42.25764 -10.36177,-13.73775 -26.3351,-36.36826 -28.21056,-39.96784 l -1.54631,-2.96785 -0.74711,8.96785 c -3.81876,45.83759 12.66203,92.05777 48.99478,137.40527 12.41883,15.50015 37.36381,39.71432 38.3033,37.18114 0.14674,-0.39565 -2.42261,-8.66103 -5.70966,-18.36749 z m 30.94286,19.83602 c 0,-2.72977 14.33499,-43.35086 24.02762,-68.0871 5.38779,-13.75 11.90392,-31.075 14.48029,-38.5 6.38348,-18.39695 10.505,-25.89583 24.23102,-44.08704 6.46859,-8.57287 14.8546,-20.38537 18.63557,-26.25 3.78098,-5.86463 7.24192,-10.66296 7.69099,-10.66296 1.6848,0 2.18398,2.51396 2.94658,14.83957 1.34272,21.70171 -1.01976,40.3625 -7.67969,60.66043 -13.01878,39.67823 -41.47515,80.78396 -75.03857,108.39454 -6.21759,5.11483 -9.29381,6.33706 -9.29381,3.69256 z m 12.63369,-8.69225 c 18.94691,-15.46688 40.75945,-43.45056 56.22368,-72.13033 6.09843,-11.31008 13.52483,-30.71474 17.13192,-44.76452 2.79981,-10.90542 3.27724,-14.68272 3.74261,-29.6105 0.29337,-9.41078 0.21306,-19.67444 -0.17847,-22.80814 l -0.71187,-5.69763 -7.36133,10.80814 c -7.38799,10.84728 -21.06864,29.69373 -23.02778,31.72306 -5.69845,5.90259 -13.8227,22.3493 -19.51071,39.49746 -2.26444,6.82682 -8.09773,22.36578 -12.96286,34.53103 -8.74939,21.87782 -23.97888,64.02235 -23.97888,66.35669 0,0.59621 2.45642,-1.22993 10.63369,-7.90526 z m -55.94226,-93.62854 c -1.50671,-2.58438 -5.96189,-20.85905 -6.74471,-27.66606 -1.36966,-11.90997 -1.11709,-31.13246 0.50993,-38.80971 2.54864,-12.02595 11.43704,-29.93915 21.97664,-44.29054 2.42351,-3.3 6.57995,-9.23452 9.23654,-13.18783 3.28604,-4.88999 5.46954,-7.19136 6.83017,-7.19888 1.44451,-0.008 4.99535,4.21035 12.78455,15.18783 12.28758,17.31713 22.69592,37.07777 25.28565,48.00576 2.27204,9.58745 2.29976,33.85119 0.0523,45.75526 -1.96784,10.42284 -5.3902,20.68425 -5.64907,16.93786 l -0.17275,-2.5 -0.85244,2.5 c -0.54466,1.59735 -0.63298,0.33364 -0.24462,-3.5 1.01839,-10.05284 0.70304,-25.662 -0.64649,-32 -2.02718,-9.52054 -9.96152,-24.8622 -20.54801,-39.73118 l -9.7764,-13.73119 -8.45663,11.73119 c -20.17559,27.98792 -23.58737,37.64576 -23.0825,65.34051 0.16855,9.24597 0.61232,16.04131 0.98616,15.10076 l 0.67972,-1.71009 0.0703,1.69098 c 0.0764,1.83842 -1.51574,3.31466 -2.23828,2.07533 z m -0.0291,-7.51631 c -0.27741,-0.6875 -0.50439,-0.125 -0.50439,1.25 0,1.375 0.22698,1.9375 0.50439,1.25 0.27741,-0.6875 0.27741,-1.8125 0,-2.5 z m 0.81501,-39.25 c 2.74651,-7.77229 7.46902,-17.35432 12.2061,-24.76632 6.37332,-9.97227 18.18783,-25.73368 19.28952,-25.73368 0.52617,0 1.47699,0.97222 2.11293,2.16049 0.63594,1.18827 4.18904,6.25077 7.89576,11.25 17.86333,24.0921 23.77891,38.91816 24.1043,60.41187 l 0.086,5.67764 1.00032,-3 c 0.55018,-1.65 1.24675,-10.37863 1.54794,-19.39695 0.78781,-23.58909 -0.97405,-31.60899 -11.14382,-50.72618 -3.96109,-7.44607 -17.87581,-27.96975 -24.04471,-35.46502 l -2.13015,-2.58815 -11.36188,15.97053 c -12.6006,17.7117 -20.76378,32.73235 -23.50971,43.25901 -2.33515,8.95191 -3.08709,27.60491 -1.61572,40.08079 1.85724,15.74781 2.53331,16.03721 3.19103,1.36597 0.4026,-8.98033 1.19675,-15.17395 2.37208,-18.5 z m 26.63424,-105.80499 c -15.2498,-26.65386 -18.16683,-48.72937 -8.87906,-67.19501 3.42774,-6.81491 11.90312,-17.62067 13.56767,-17.29821 2.80105,0.54262 12.13778,14.05145 15.21649,22.01595 2.60739,6.74524 2.98332,8.99521 2.98332,17.85566 0,11.71881 -1.51641,18.50072 -6.88573,30.79543 -4.80788,11.00912 -9.31842,18.54681 -11.33024,18.93425 -1.01636,0.19573 -2.67602,-1.61866 -4.67245,-5.10807 z m 11.73713,-10.23831 c 5.78071,-11.60772 9.15405,-23.90553 9.13942,-33.31857 -0.0194,-12.47791 -2.83978,-20.35644 -11.69276,-32.6628 l -4.59145,-6.38248 -4.61334,6.20358 c -12.6897,17.06391 -15.01753,32.49299 -7.99705,53.00535 2.84135,8.30183 4.60744,12.05574 10.55343,22.43191 l 1.85304,3.23369 1.63013,-2.15051 c 0.89657,-1.18277 3.46993,-5.84485 5.71858,-10.36017 z"
       id="path351"
       inkscape:export-filename="path351.svg"
       inkscape:export-xdpi="96"
       inkscape:export-ydpi="96" /></g></svg>
